<?xml version="1.0" encoding="UTF-8"?>
<svg version="1.1" xmlns="http://www.w3.org/2000/svg" width="128" height="128">
<path d="M0 0 C42.24 0 84.48 0 128 0 C128 42.24 128 84.48 128 128 C85.76 128 43.52 128 0 128 C0 85.76 0 43.52 0 0 Z " fill="#6B00B8" transform="translate(0,0)"/>
<path d="M0 0 C3.96 0 7.92 0 12 0 C12 1.32 12 2.64 12 4 C13.65 4 15.3 4 17 4 C17 2.68 17 1.36 17 0 C20.96 0 24.92 0 29 0 C29 11.88 29 23.76 29 36 C25.04 36 21.08 36 17 36 C17 30.72 17 25.44 17 20 C16.01 20 15.02 20 14 20 C14 18.68 14 17.36 14 16 C13.34 16 12.68 16 12 16 C12 22.6 12 29.2 12 36 C9.69 36 7.38 36 5 36 C5 38.31 5 40.62 5 43 C6.65 43 8.3 43 10 43 C10 44.98 10 46.96 10 49 C12.31 49 14.62 49 17 49 C17 52.3 17 55.6 17 59 C17.99 59 18.98 59 20 59 C20.33 55.04 20.66 51.08 21 47 C22.32 47 23.64 47 25 47 C25 46.01 25 45.02 25 44 C25.99 44 26.98 44 28 44 C28 43.01 28 42.02 28 41 C28.99 41 29.98 41 31 41 C31 40.34 31 39.68 31 39 C35.29 39 39.58 39 44 39 C44 39.66 44 40.32 44 41 C48.62 41 53.24 41 58 41 C58 38.36 58 35.72 58 33 C60.69019894 31.42496516 63.40421521 29.89649149 66.125 28.375 C67.26582031 27.70597656 67.26582031 27.70597656 68.4296875 27.0234375 C74.12830337 23.87937357 74.12830337 23.87937357 77.9921875 24.4140625 C82.0303435 26.54327203 86.00937513 28.78298618 90 31 C90 49.81 90 68.62 90 88 C84.06 88 78.12 88 72 88 C72.33 85.69 72.66 83.38 73 81 C75.64 81 78.28 81 81 81 C81 78.03 81 75.06 81 72 C80.01 72 79.02 72 78 72 C78 71.34 78 70.68 78 70 C76.02 70 74.04 70 72 70 C72 68.02 72 66.04 72 64 C71.01 64 70.02 64 69 64 C69 65.98 69 67.96 69 70 C68.01 70 67.02 70 66 70 C66 70.99 66 71.98 66 73 C62.7 73 59.4 73 56 73 C56 71.35 56 69.7 56 68 C54.35 68 52.7 68 51 68 C51 66.68 51 65.36 51 64 C48.69 64 46.38 64 44 64 C44 71.26 44 78.52 44 86 C44.66 86 45.32 86 46 86 C47.625 87.1875 47.625 87.1875 49 89 C49.1875 91.6875 49.1875 91.6875 49 94 C50.32 94 51.64 94 53 94 C53 92.68 53 91.36 53 90 C53.99 90 54.98 90 56 90 C56 89.34 56 88.68 56 88 C56.99 88 57.98 88 59 88 C59 89.98 59 91.96 59 94 C58.01 94 57.02 94 56 94 C56 94.66 56 95.32 56 96 C53.03 96 50.06 96 47 96 C46.67 96.66 46.34 97.32 46 98 C44.02 98 42.04 98 40 98 C40 100.97 40 103.94 40 107 C39.01 107 38.02 107 37 107 C37 108.98 37 110.96 37 113 C34.36 113 31.72 113 29 113 C29 112.01 29 111.02 29 110 C28.01 110 27.02 110 26 110 C26 110.99 26 111.98 26 113 C23.03 113 20.06 113 17 113 C17 112.01 17 111.02 17 110 C16.01 110 15.02 110 14 110 C14 108.02 14 106.04 14 104 C11.00519083 103.1276588 8.36424089 102.89170234 5.25 102.9375 C4.45078125 102.94652344 3.6515625 102.95554687 2.828125 102.96484375 C2.22484375 102.97644531 1.6215625 102.98804687 1 103 C1 102.01 1 101.02 1 100 C0.01 100 -0.98 100 -2 100 C-2 100.99 -2 101.98 -2 103 C-4.97 103 -7.94 103 -11 103 C-11 102.01 -11 101.02 -11 100 C-11.66 100 -12.32 100 -13 100 C-13 98.02 -13 96.04 -13 94 C-13.66 94 -14.32 94 -15 94 C-15 92.35 -15 90.7 -15 89 C-19.95 89 -24.9 89 -30 89 C-29.67 70.85 -29.34 52.7 -29 34 C-23.39 31.03 -17.78 28.06 -12 25 C-3 28 -3 28 -1 29 C-0.67 19.43 -0.34 9.86 0 0 Z " fill="#010103" transform="translate(34,8)"/>
<path d="M0 0 C3.96 0 7.92 0 12 0 C12 1.32 12 2.64 12 4 C13.65 4 15.3 4 17 4 C17 2.68 17 1.36 17 0 C20.96 0 24.92 0 29 0 C29 11.88 29 23.76 29 36 C25.04 36 21.08 36 17 36 C17 30.72 17 25.44 17 20 C16.01 20 15.02 20 14 20 C14 18.68 14 17.36 14 16 C13.34 16 12.68 16 12 16 C12 22.6 12 29.2 12 36 C9.69 36 7.38 36 5 36 C5 38.31 5 40.62 5 43 C6.65 43 8.3 43 10 43 C10 44.98 10 46.96 10 49 C12.31 49 14.62 49 17 49 C17 49.99 17 50.98 17 52 C15.68 52 14.36 52 13 52 C13 54.64 13 57.28 13 60 C7.39 60 1.78 60 -4 60 C-4 60.99 -4 61.98 -4 63 C-2.35 63 -0.7 63 1 63 C1 63.99 1 64.98 1 66 C3.31 66 5.62 66 8 66 C8 65.01 8 64.02 8 63 C8.66 63 9.32 63 10 63 C10.65156409 67.72383963 11.11950637 72.21974517 11 77 C11.99 77 12.98 77 14 77 C14 77.99 14 78.98 14 80 C13.01 80 12.02 80 11 80 C11.01160156 80.62648438 11.02320313 81.25296875 11.03515625 81.8984375 C11.04417969 82.71570313 11.05320313 83.53296875 11.0625 84.375 C11.07410156 85.18710938 11.08570313 85.99921875 11.09765625 86.8359375 C11 89 11 89 10 91 C3.07 91 -3.86 91 -11 91 C-11 91.99 -11 92.98 -11 94 C-12.32 94 -13.64 94 -15 94 C-15 92.35 -15 90.7 -15 89 C-19.95 89 -24.9 89 -30 89 C-29.67 70.85 -29.34 52.7 -29 34 C-23.39 31.03 -17.78 28.06 -12 25 C-3 28 -3 28 -1 29 C-0.67 19.43 -0.34 9.86 0 0 Z " fill="#3A3E55" transform="translate(34,8)"/>
<path d="M0 0 C1.18084671 0.00030212 2.36169342 0.00060425 3.57832336 0.00091553 C4.84306992 0.02156067 6.10781647 0.04220581 7.41088867 0.06347656 C8.71338058 0.06913635 10.0158725 0.07479614 11.35783386 0.08062744 C14.80881843 0.09584867 18.25912204 0.1350984 21.70983887 0.17944336 C25.23574615 0.22047299 28.76176423 0.23865475 32.2878418 0.25878906 C39.19762549 0.30159741 46.1069587 0.36980505 53.01635742 0.45410156 C53.01635742 1.44410156 53.01635742 2.43410156 53.01635742 3.45410156 C59.28635742 3.78410156 65.55635742 4.11410156 72.01635742 4.45410156 C72.01635742 9.40410156 72.01635742 14.35410156 72.01635742 19.45410156 C70.36635742 19.45410156 68.71635742 19.45410156 67.01635742 19.45410156 C67.01635742 20.11410156 67.01635742 20.77410156 67.01635742 21.45410156 C68.66635742 21.45410156 70.31635742 21.45410156 72.01635742 21.45410156 C72.01635742 27.72410156 72.01635742 33.99410156 72.01635742 40.45410156 C70.01573242 40.43347656 68.01510742 40.41285156 65.95385742 40.39160156 C57.31239192 39.91415741 57.31239192 39.91415741 50.01635742 43.45410156 C49.02635742 43.45410156 48.03635742 43.45410156 47.01635742 43.45410156 C47.01635742 44.11410156 47.01635742 44.77410156 47.01635742 45.45410156 C46.02635742 45.45410156 45.03635742 45.45410156 44.01635742 45.45410156 C44.01635742 46.44410156 44.01635742 47.43410156 44.01635742 48.45410156 C43.02635742 48.45410156 42.03635742 48.45410156 41.01635742 48.45410156 C41.01635742 49.44410156 41.01635742 50.43410156 41.01635742 51.45410156 C39.69635742 51.45410156 38.37635742 51.45410156 37.01635742 51.45410156 C37.02795898 52.06898437 37.03956055 52.68386719 37.05151367 53.31738281 C37.06053711 54.125625 37.06956055 54.93386719 37.07885742 55.76660156 C37.09045898 56.56710938 37.10206055 57.36761719 37.11401367 58.19238281 C37.01635742 60.45410156 37.01635742 60.45410156 36.01635742 63.45410156 C35.02635742 63.45410156 34.03635742 63.45410156 33.01635742 63.45410156 C33.01635742 60.15410156 33.01635742 56.85410156 33.01635742 53.45410156 C30.70635742 53.45410156 28.39635742 53.45410156 26.01635742 53.45410156 C26.01635742 51.47410156 26.01635742 49.49410156 26.01635742 47.45410156 C24.36635742 47.45410156 22.71635742 47.45410156 21.01635742 47.45410156 C21.01635742 45.14410156 21.01635742 42.83410156 21.01635742 40.45410156 C23.32635742 40.45410156 25.63635742 40.45410156 28.01635742 40.45410156 C28.01635742 33.85410156 28.01635742 27.25410156 28.01635742 20.45410156 C28.67635742 20.45410156 29.33635742 20.45410156 30.01635742 20.45410156 C30.01635742 21.77410156 30.01635742 23.09410156 30.01635742 24.45410156 C31.00635742 24.45410156 31.99635742 24.45410156 33.01635742 24.45410156 C33.01635742 29.73410156 33.01635742 35.01410156 33.01635742 40.45410156 C36.97635742 40.45410156 40.93635742 40.45410156 45.01635742 40.45410156 C45.01635742 28.57410156 45.01635742 16.69410156 45.01635742 4.45410156 C41.05635742 4.45410156 37.09635742 4.45410156 33.01635742 4.45410156 C33.01635742 5.77410156 33.01635742 7.09410156 33.01635742 8.45410156 C31.36635742 8.45410156 29.71635742 8.45410156 28.01635742 8.45410156 C28.01635742 7.13410156 28.01635742 5.81410156 28.01635742 4.45410156 C24.05635742 4.45410156 20.09635742 4.45410156 16.01635742 4.45410156 C16.01635742 14.35410156 16.01635742 24.25410156 16.01635742 34.45410156 C11.06635742 32.47410156 11.06635742 32.47410156 6.01635742 30.45410156 C1.04996123 32.44066004 -3.59088962 34.76461853 -8.33911133 37.21191406 C-10.98364258 38.45410156 -10.98364258 38.45410156 -12.98364258 38.45410156 C-12.98364258 56.27410156 -12.98364258 74.09410156 -12.98364258 92.45410156 C-13.31364258 92.45410156 -13.64364258 92.45410156 -13.98364258 92.45410156 C-14.05320441 81.86629607 -14.10648532 71.2785451 -14.13907909 60.69055748 C-14.1547238 55.77392877 -14.17594034 50.8574566 -14.20996094 45.94091797 C-14.24259688 41.19469289 -14.26050458 36.44861823 -14.26827431 31.70228958 C-14.2738102 29.89301817 -14.2846205 28.08375482 -14.30083275 26.27454758 C-14.32266341 23.73705105 -14.32560716 21.20017324 -14.32421875 18.66259766 C-14.33500458 17.91740875 -14.34579041 17.17221985 -14.35690308 16.40444946 C-14.32088877 10.30708264 -12.95372448 6.45236665 -8.67012024 2.10748291 C-5.49279025 0.15200857 -3.7077927 -0.0317584 0 0 Z " fill="#DD09FD" transform="translate(17.983642578125,3.5458984375)"/>
<path d="M0 0 C4.038156 2.12920953 8.01718763 4.36892368 12.0078125 6.5859375 C12.0078125 25.3959375 12.0078125 44.2059375 12.0078125 63.5859375 C6.0678125 63.5859375 0.1278125 63.5859375 -5.9921875 63.5859375 C-5.6621875 61.2759375 -5.3321875 58.9659375 -4.9921875 56.5859375 C-2.3521875 56.5859375 0.2878125 56.5859375 3.0078125 56.5859375 C3.0078125 53.6159375 3.0078125 50.6459375 3.0078125 47.5859375 C2.0178125 47.5859375 1.0278125 47.5859375 0.0078125 47.5859375 C0.0078125 46.9259375 0.0078125 46.2659375 0.0078125 45.5859375 C-1.9721875 45.5859375 -3.9521875 45.5859375 -5.9921875 45.5859375 C-5.9921875 43.6059375 -5.9921875 41.6259375 -5.9921875 39.5859375 C-6.9821875 39.5859375 -7.9721875 39.5859375 -8.9921875 39.5859375 C-8.9921875 41.5659375 -8.9921875 43.5459375 -8.9921875 45.5859375 C-9.9821875 45.5859375 -10.9721875 45.5859375 -11.9921875 45.5859375 C-11.9921875 46.5759375 -11.9921875 47.5659375 -11.9921875 48.5859375 C-15.2921875 48.5859375 -18.5921875 48.5859375 -21.9921875 48.5859375 C-21.9921875 46.9359375 -21.9921875 45.2859375 -21.9921875 43.5859375 C-23.6421875 43.5859375 -25.2921875 43.5859375 -26.9921875 43.5859375 C-26.9921875 42.2659375 -26.9921875 40.9459375 -26.9921875 39.5859375 C-28.3121875 39.5859375 -29.6321875 39.5859375 -30.9921875 39.5859375 C-30.9921875 38.9259375 -30.9921875 38.2659375 -30.9921875 37.5859375 C-29.6721875 37.5859375 -28.3521875 37.5859375 -26.9921875 37.5859375 C-26.9921875 35.6059375 -26.9921875 33.6259375 -26.9921875 31.5859375 C-26.3321875 31.5859375 -25.6721875 31.5859375 -24.9921875 31.5859375 C-24.9921875 30.5959375 -24.9921875 29.6059375 -24.9921875 28.5859375 C-27.9621875 28.5859375 -30.9321875 28.5859375 -33.9921875 28.5859375 C-33.9921875 25.6159375 -33.9921875 22.6459375 -33.9921875 19.5859375 C-25.7421875 19.5859375 -17.4921875 19.5859375 -8.9921875 19.5859375 C-8.9921875 18.5959375 -8.9921875 17.6059375 -8.9921875 16.5859375 C-12.6221875 16.5859375 -16.2521875 16.5859375 -19.9921875 16.5859375 C-19.9921875 13.9459375 -19.9921875 11.3059375 -19.9921875 8.5859375 C-17.30198856 7.01090266 -14.58797229 5.48242899 -11.8671875 3.9609375 C-11.10664062 3.51492187 -10.34609375 3.06890625 -9.5625 2.609375 C-3.86388413 -0.53468893 -3.86388413 -0.53468893 0 0 Z " fill="#3D4059" transform="translate(111.9921875,32.4140625)"/>
<path d="M0 0 C6.44102868 -0.12703233 12.88173302 -0.21444812 19.32373047 -0.2746582 C21.51395744 -0.29976434 23.70410094 -0.33385637 25.89404297 -0.37719727 C29.04675922 -0.43801907 32.19836553 -0.46624923 35.3515625 -0.48828125 C36.8144017 -0.52699089 36.8144017 -0.52699089 38.30679321 -0.56648254 C42.82980709 -0.56833821 45.99764543 -0.50852844 49.60302734 2.40551758 C53.1732981 6.26997748 53.12100217 8.13751876 53.09765625 13.3203125 C53.09443359 14.57714844 53.09121094 15.83398438 53.08789062 17.12890625 C53.07532227 19.10697266 53.07532227 19.10697266 53.0625 21.125 C53.05748489 22.46484211 53.05292201 23.804686 53.04882812 25.14453125 C53.03701086 28.42973206 53.02053617 31.71484397 53 35 C49.77734375 33.37239583 46.5546875 31.74479167 43.33203125 30.1171875 C40.15554309 28.7214599 40.15554309 28.7214599 37.4609375 29.625 C36.64882812 30.07875 35.83671875 30.5325 35 31 C33.99582031 31.49757813 32.99164063 31.99515625 31.95703125 32.5078125 C29.85238019 33.59020447 27.74821691 34.67354541 25.64453125 35.7578125 C23 37 23 37 21 37 C21 39.64 21 42.28 21 45 C16.38 45 11.76 45 7 45 C7 44.34 7 43.68 7 43 C3.7 43 0.4 43 -3 43 C-2.34 42.01 -1.68 41.02 -1 40 C1.31 40 3.62 40 6 40 C6 34.72 6 29.44 6 24 C6.33 24 6.66 24 7 24 C7 29.28 7 34.56 7 40 C10.96 40 14.92 40 19 40 C19 33.73 19 27.46 19 21 C17.35 21 15.7 21 14 21 C14 20.34 14 19.68 14 19 C15.65 19 17.3 19 19 19 C19 14.05 19 9.1 19 4 C12.73 4 6.46 4 0 4 C0 2.68 0 1.36 0 0 Z " fill="#25D4E9" transform="translate(71,4)"/>
<path d="M0 0 C1.20366211 0.00483398 1.20366211 0.00483398 2.43164062 0.00976562 C3.68170898 0.02233398 3.68170898 0.02233398 4.95703125 0.03515625 C5.80201172 0.03966797 6.64699219 0.04417969 7.51757812 0.04882812 C9.6015928 0.06060222 11.68557102 0.07853735 13.76953125 0.09765625 C13.91575149 3.30550346 14.00389776 6.51248586 14.08203125 9.72265625 C14.12392578 10.62628906 14.16582031 11.52992187 14.20898438 12.4609375 C14.2910255 16.95679089 14.28966327 20.1020795 11.375 23.68359375 C7.99678004 26.81363863 6.60082378 27.22286906 2.13623047 27.21118164 C1.17538544 27.21110611 0.21454041 27.21103058 -0.77542114 27.21095276 C-1.81503998 27.20579147 -2.85465881 27.20063019 -3.92578125 27.1953125 C-4.98836151 27.19389755 -6.05094177 27.1924826 -7.14572144 27.19102478 C-10.54899884 27.18541459 -13.95221113 27.17286034 -17.35546875 27.16015625 C-19.65885322 27.15514256 -21.96223872 27.15057943 -24.265625 27.14648438 C-29.92059811 27.13544184 -35.57552238 27.11817034 -41.23046875 27.09765625 C-40.57046875 24.12765625 -39.91046875 21.15765625 -39.23046875 18.09765625 C-38.24046875 18.09765625 -37.25046875 18.09765625 -36.23046875 18.09765625 C-36.23046875 15.12765625 -36.23046875 12.15765625 -36.23046875 9.09765625 C-34.25046875 9.09765625 -32.27046875 9.09765625 -30.23046875 9.09765625 C-29.90046875 8.10765625 -29.57046875 7.11765625 -29.23046875 6.09765625 C-26.26046875 6.42765625 -23.29046875 6.75765625 -20.23046875 7.09765625 C-20.23046875 6.43765625 -20.23046875 5.77765625 -20.23046875 5.09765625 C-19.24046875 5.09765625 -18.25046875 5.09765625 -17.23046875 5.09765625 C-17.23046875 5.75765625 -17.23046875 6.41765625 -17.23046875 7.09765625 C-13.93046875 7.09765625 -10.63046875 7.09765625 -7.23046875 7.09765625 C-7.23046875 5.11765625 -7.23046875 3.13765625 -7.23046875 1.09765625 C-4.46481493 0.17577164 -2.84763173 -0.02019597 0 0 Z " fill="#29D0E9" transform="translate(110.23046875,96.90234375)"/>
<path d="M0 0 C0.66 0 1.32 0 2 0 C2 0.99 2 1.98 2 3 C2.99 3 3.98 3 5 3 C5 3.99 5 4.98 5 6 C5.99 6 6.98 6 8 6 C8 5.01 8 4.02 8 3 C9.32 3 10.64 3 12 3 C12 2.01 12 1.02 12 0 C12.66 0 13.32 0 14 0 C14 1.98 14 3.96 14 6 C16.31 6 18.62 6 21 6 C21 6.99 21 7.98 21 9 C19.68 9 18.36 9 17 9 C17 11.64 17 14.28 17 17 C11.39 17 5.78 17 0 17 C0 17.99 0 18.98 0 20 C1.65 20 3.3 20 5 20 C5 20.99 5 21.98 5 23 C7.31 23 9.62 23 12 23 C12 22.01 12 21.02 12 20 C12.66 20 13.32 20 14 20 C14.65156409 24.72383963 15.11950637 29.21974517 15 34 C15.99 34 16.98 34 18 34 C18 34.99 18 35.98 18 37 C17.01 37 16.02 37 15 37 C15.01160156 37.62648437 15.02320312 38.25296875 15.03515625 38.8984375 C15.04417969 39.71570313 15.05320312 40.53296875 15.0625 41.375 C15.07410156 42.18710938 15.08570312 42.99921875 15.09765625 43.8359375 C15 46 15 46 14 48 C9.38 48 4.76 48 0 48 C0 47.34 0 46.68 0 46 C-1.32 46 -2.64 46 -4 46 C-4 45.01 -4 44.02 -4 43 C-2.68 43 -1.36 43 0 43 C0 41.02 0 39.04 0 37 C-1.32 37 -2.64 37 -4 37 C-4 36.01 -4 35.02 -4 34 C-5.65 34 -7.3 34 -9 34 C-9 32.02 -9 30.04 -9 28 C-8.34 28 -7.68 28 -7 28 C-7 27.34 -7 26.68 -7 26 C-7.66 26 -8.32 26 -9 26 C-9 19.4 -9 12.8 -9 6 C-8.34 6 -7.68 6 -7 6 C-7 5.01 -7 4.02 -7 3 C-6.01 3 -5.02 3 -4 3 C-4 3.99 -4 4.98 -4 6 C-2.68 6 -1.36 6 0 6 C0 4.02 0 2.04 0 0 Z " fill="#F8D4B1" transform="translate(30,51)"/>
<path d="M0 0 C8.25 0 16.5 0 25 0 C25 4.95 25 9.9 25 15 C23.35 15 21.7 15 20 15 C20 15.66 20 16.32 20 17 C21.65 17 23.3 17 25 17 C25 23.27 25 29.54 25 36 C16.75 36 8.5 36 0 36 C0 24.12 0 12.24 0 0 Z " fill="#DD10F3" transform="translate(65,8)"/>
<path d="M0 0 C4.62 2.31 9.24 4.62 14 7 C14 25.81 14 44.62 14 64 C8.06 64 2.12 64 -4 64 C-3.67 61.69 -3.34 59.38 -3 57 C-0.36 57 2.28 57 5 57 C5 54.03 5 51.06 5 48 C4.01 48 3.02 48 2 48 C2 47.34 2 46.68 2 46 C1.34 46 0.68 46 0 46 C0 30.82 0 15.64 0 0 Z " fill="#605E7C" transform="translate(110,32)"/>
<path d="M0 0 C0.99 0 1.98 0 3 0 C3 1.98 3 3.96 3 6 C4.98 6 6.96 6 9 6 C9 6.99 9 7.98 9 9 C9.66 9 10.32 9 11 9 C11 10.98 11 12.96 11 15 C10.34 15 9.68 15 9 15 C9 15.99 9 16.98 9 18 C9.66 18 10.32 18 11 18 C11 18.99 11 19.98 11 21 C14.96 21 18.92 21 23 21 C23 18.03 23 15.06 23 12 C25.97 12 28.94 12 32 12 C32 12.99 32 13.98 32 15 C32.99 15 33.98 15 35 15 C35 15.99 35 16.98 35 18 C33.02 18 31.04 18 29 18 C29 20.97 29 23.94 29 27 C28.01 27 27.02 27 26 27 C26 28.98 26 30.96 26 33 C23.36 33 20.72 33 18 33 C18 32.01 18 31.02 18 30 C17.01 30 16.02 30 15 30 C15 30.99 15 31.98 15 33 C12.03 33 9.06 33 6 33 C6 32.01 6 31.02 6 30 C5.01 30 4.02 30 3 30 C3 28.02 3 26.04 3 24 C0.00519083 23.1276588 -2.63575911 22.89170234 -5.75 22.9375 C-6.94882812 22.95103516 -6.94882812 22.95103516 -8.171875 22.96484375 C-8.77515625 22.97644531 -9.3784375 22.98804687 -10 23 C-10 22.01 -10 21.02 -10 20 C-10.99 20 -11.98 20 -13 20 C-13 20.99 -13 21.98 -13 23 C-15.97 23 -18.94 23 -22 23 C-22 22.01 -22 21.02 -22 20 C-22.66 20 -23.32 20 -24 20 C-24 18.02 -24 16.04 -24 14 C-23.34 14 -22.68 14 -22 14 C-22 13.01 -22 12.02 -22 11 C-15.07 11 -8.14 11 -1 11 C-0.67 7.37 -0.34 3.74 0 0 Z " fill="#4A4A4A" transform="translate(45,88)"/>
<path d="M0 0 C2.31 0 4.62 0 7 0 C7 1.32 7 2.64 7 4 C8.65 4 10.3 4 12 4 C12 5.65 12 7.3 12 9 C15.3 9 18.6 9 22 9 C22 8.01 22 7.02 22 6 C22.99 6 23.98 6 25 6 C25 4.02 25 2.04 25 0 C25.99 0 26.98 0 28 0 C28 1.98 28 3.96 28 6 C29.98 6 31.96 6 34 6 C34 6.66 34 7.32 34 8 C34.99 8 35.98 8 37 8 C37 10.97 37 13.94 37 17 C34.36 17 31.72 17 29 17 C28.67 19.31 28.34 21.62 28 24 C33.94 24 39.88 24 46 24 C46 24.33 46 24.66 46 25 C35.605 25.495 35.605 25.495 25 26 C25 27.98 25 29.96 25 32 C21.7 32 18.4 32 15 32 C15 29.36 15 26.72 15 24 C14.01 24 13.02 24 12 24 C12 24.66 12 25.32 12 26 C11.01 26 10.02 26 9 26 C9 27.32 9 28.64 9 30 C7.68 30 6.36 30 5 30 C5 28.35 5 26.7 5 25 C4.01 24.67 3.02 24.34 2 24 C2 23.34 2 22.68 2 22 C1.34 22 0.68 22 0 22 C0 14.74 0 7.48 0 0 Z " fill="#4B0C77" transform="translate(78,72)"/>
<path d="M0 0 C4.62 0 9.24 0 14 0 C14 3.96 14 7.92 14 12 C13.01 12 12.02 12 11 12 C11 12.99 11 13.98 11 15 C11.99 15 12.98 15 14 15 C14 16.98 14 18.96 14 21 C14.99 21 15.98 21 17 21 C17 21.99 17 22.98 17 24 C17.99 24 18.98 24 20 24 C20 25.98 20 27.96 20 30 C19.01 30 18.02 30 17 30 C17 29.01 17 28.02 17 27 C14.03 27 11.06 27 8 27 C8 29.97 8 32.94 8 36 C4.04 36 0.08 36 -4 36 C-4 35.01 -4 34.02 -4 33 C-4.66 33 -5.32 33 -6 33 C-6 32.01 -6 31.02 -6 30 C-5.34 30 -4.68 30 -4 30 C-4 28.02 -4 26.04 -4 24 C-4.66 24 -5.32 24 -6 24 C-6 23.01 -6 22.02 -6 21 C-7.98 21 -9.96 21 -12 21 C-12 19.02 -12 17.04 -12 15 C-11.01 15 -10.02 15 -9 15 C-9 14.01 -9 13.02 -9 12 C-8.01 12 -7.02 12 -6 12 C-6 10.02 -6 8.04 -6 6 C-3.03 6 -0.06 6 3 6 C3 5.01 3 4.02 3 3 C2.01 3 1.02 3 0 3 C0 2.01 0 1.02 0 0 Z " fill="#4A0885" transform="translate(60,73)"/>
<path d="M0 0 C4.95 0 9.9 0 15 0 C15 1.65 15 3.3 15 5 C15.66 5 16.32 5 17 5 C17 6.65 17 8.3 17 10 C13.04 11.98 13.04 11.98 9 14 C9.33 15.32 9.66 16.64 10 18 C16.81116823 18.21065469 23.0183177 17.9723283 29.6640625 16.4453125 C33.15623481 15.77958065 36.45485233 15.86869823 40 16 C40.495 19.465 40.495 19.465 41 23 C43.31 23.66 45.62 24.32 48 25 C48 25.66 48 26.32 48 27 C42.27091299 27.12391543 36.54261176 27.21448818 30.8125 27.2746582 C28.86477057 27.29974946 26.9171348 27.33383061 24.96972656 27.37719727 C22.1644781 27.43808749 19.36047792 27.46626331 16.5546875 27.48828125 C15.68883026 27.51408768 14.82297302 27.5398941 13.93087769 27.56648254 C9.64421555 27.56845583 6.86668161 27.34566129 3.46533203 24.59448242 C0.29003789 21.25284538 -0.12588901 19.89046337 -0.09765625 15.4296875 C-0.09443359 14.53378906 -0.09121094 13.63789062 -0.08789062 12.71484375 C-0.07951172 11.77769531 -0.07113281 10.84054688 -0.0625 9.875 C-0.05798828 8.93011719 -0.05347656 7.98523438 -0.04882812 7.01171875 C-0.03702375 4.6744523 -0.01908799 2.33721831 0 0 Z " fill="#DB0BFD" transform="translate(4,97)"/>
<path d="M0 0 C2.64 0 5.28 0 8 0 C8 1.32 8 2.64 8 4 C9.65 4 11.3 4 13 4 C13 5.32 13 6.64 13 8 C14.32 8 15.64 8 17 8 C17 5.36 17 2.72 17 0 C19.64 0 22.28 0 25 0 C25 10.56 25 21.12 25 32 C22.36 32 19.72 32 17 32 C17 26.72 17 21.44 17 16 C16.01 16 15.02 16 14 16 C14 14.68 14 13.36 14 12 C12.02 12 10.04 12 8 12 C8 18.6 8 25.2 8 32 C5.36 32 2.72 32 0 32 C0 21.44 0 10.88 0 0 Z " fill="#13F4DD" transform="translate(36,10)"/>
<path d="M0 0 C5.61 0 11.22 0 17 0 C17 1.32 17 2.64 17 4 C15.02 4 13.04 4 11 4 C11 15.88 11 27.76 11 40 C12.65 40 14.3 40 16 40 C15.34 40.99 14.68 41.98 14 43 C13.01 43 12.02 43 11 43 C11 43.66 11 44.32 11 45 C10.01 45 9.02 45 8 45 C8 45.99 8 46.98 8 48 C7.01 48 6.02 48 5 48 C5 48.99 5 49.98 5 51 C3.68 51 2.36 51 1 51 C1.01160156 51.61488281 1.02320312 52.22976562 1.03515625 52.86328125 C1.04417969 53.67152344 1.05320312 54.47976562 1.0625 55.3125 C1.07410156 56.11300781 1.08570312 56.91351563 1.09765625 57.73828125 C1 60 1 60 0 63 C-0.99 63 -1.98 63 -3 63 C-3 59.7 -3 56.4 -3 53 C-5.31 53 -7.62 53 -10 53 C-10 51.02 -10 49.04 -10 47 C-11.65 47 -13.3 47 -15 47 C-15 44.69 -15 42.38 -15 40 C-12.69 40 -10.38 40 -8 40 C-8 33.4 -8 26.8 -8 20 C-7.34 20 -6.68 20 -6 20 C-6 21.32 -6 22.64 -6 24 C-5.01 24 -4.02 24 -3 24 C-3 29.28 -3 34.56 -3 40 C0.96 40 4.92 40 9 40 C9 28.12 9 16.24 9 4 C6.03 4 3.06 4 0 4 C0 2.68 0 1.36 0 0 Z " fill="#9855F6" transform="translate(54,4)"/>
<path d="M0 0 C1.32 0 2.64 0 4 0 C4 2.31 4 4.62 4 7 C10.6 7 17.2 7 24 7 C24 7.99 24 8.98 24 10 C24.99 10 25.98 10 27 10 C27 10.99 27 11.98 27 13 C22.38 13 17.76 13 13 13 C13 13.99 13 14.98 13 16 C13.99 16 14.98 16 16 16 C16 16.99 16 17.98 16 19 C13.03 19 10.06 19 7 19 C7 20.98 7 22.96 7 25 C6.01 25 5.02 25 4 25 C4 25.99 4 26.98 4 28 C3.01 28 2.02 28 1 28 C1 27.01 1 26.02 1 25 C0.01 25 -0.98 25 -2 25 C-2.16834933 23.22932584 -2.33461909 21.45845388 -2.5 19.6875 C-2.5928125 18.70136719 -2.685625 17.71523437 -2.78125 16.69921875 C-3 14 -3 14 -3 11 C-3.66 11 -4.32 11 -5 11 C-5 11.99 -5 12.98 -5 14 C-7.31 14 -9.62 14 -12 14 C-12 13.01 -12 12.02 -12 11 C-13.65 11 -15.3 11 -17 11 C-17 10.01 -17 9.02 -17 8 C-11.39 8 -5.78 8 0 8 C0 5.36 0 2.72 0 0 Z " fill="#75410D" transform="translate(47,60)"/>
<path d="M0 0 C9.24 0 18.48 0 28 0 C28 0.99 28 1.98 28 3 C28.66 3 29.32 3 30 3 C30 7.95 30 12.9 30 18 C28.35 18 26.7 18 25 18 C25 17.01 25 16.02 25 15 C24.01 15 23.02 15 22 15 C22 15.99 22 16.98 22 18 C19.69 18 17.38 18 15 18 C15 16.02 15 14.04 15 12 C13.02 12 11.04 12 9 12 C9 11.01 9 10.02 9 9 C6.03 9 3.06 9 0 9 C0 6.03 0 3.06 0 0 Z " fill="#1C0E42" transform="translate(78,52)"/>
<path d="M0 0 C3.96 0 7.92 0 12 0 C12 1.32 12 2.64 12 4 C13.65 4 15.3 4 17 4 C17 2.68 17 1.36 17 0 C20.96 0 24.92 0 29 0 C29 11.88 29 23.76 29 36 C25.04 36 21.08 36 17 36 C17 30.72 17 25.44 17 20 C16.01 20 15.02 20 14 20 C14 18.68 14 17.36 14 16 C13.34 16 12.68 16 12 16 C12 22.6 12 29.2 12 36 C8.04 36 4.08 36 0 36 C0 24.12 0 12.24 0 0 Z M2 2 C2 12.56 2 23.12 2 34 C4.64 34 7.28 34 10 34 C10 27.4 10 20.8 10 14 C11.98 14 13.96 14 16 14 C16 15.32 16 16.64 16 18 C16.99 18 17.98 18 19 18 C19 23.28 19 28.56 19 34 C21.64 34 24.28 34 27 34 C27 23.44 27 12.88 27 2 C24.36 2 21.72 2 19 2 C19 4.64 19 7.28 19 10 C17.68 10 16.36 10 15 10 C15 8.68 15 7.36 15 6 C13.35 6 11.7 6 10 6 C10 4.68 10 3.36 10 2 C7.36 2 4.72 2 2 2 Z " fill="#000000" transform="translate(34,8)"/>
<path d="M0 0 C4.29 0 8.58 0 13 0 C13 0.66 13 1.32 13 2 C21.25 2 29.5 2 38 2 C38 2.99 38 3.98 38 5 C29.75 5 21.5 5 13 5 C13 6.98 13 8.96 13 11 C12.01 11 11.02 11 10 11 C10 10.01 10 9.02 10 8 C9.01 8 8.02 8 7 8 C7 10.97 7 13.94 7 17 C2.71 17 -1.58 17 -6 17 C-6 13.04 -6 9.08 -6 5 C-5.01 5 -4.02 5 -3 5 C-3 4.01 -3 3.02 -3 2 C-2.01 2 -1.02 2 0 2 C0 1.34 0 0.68 0 0 Z " fill="#1F0F4A" transform="translate(65,47)"/>
<path d="M0 0 C8.25 0 16.5 0 25 0 C25 4.95 25 9.9 25 15 C23.35 15 21.7 15 20 15 C20 15.66 20 16.32 20 17 C21.65 17 23.3 17 25 17 C25 23.27 25 29.54 25 36 C16.75 36 8.5 36 0 36 C0 24.12 0 12.24 0 0 Z M2 2 C2 12.56 2 23.12 2 34 C4.64 34 7.28 34 10 34 C10 28.72 10 23.44 10 18 C11.65 18 13.3 18 15 18 C15 23.28 15 28.56 15 34 C17.64 34 20.28 34 23 34 C23 29.05 23 24.1 23 19 C21.35 19 19.7 19 18 19 C18 17.02 18 15.04 18 13 C19.65 13 21.3 13 23 13 C23 9.37 23 5.74 23 2 C16.07 2 9.14 2 2 2 Z " fill="#000000" transform="translate(65,8)"/>
<path d="M0 0 C4.62 0 9.24 0 14 0 C14 3.96 14 7.92 14 12 C13.01 12 12.02 12 11 12 C11 12.99 11 13.98 11 15 C10.01 15 9.02 15 8 15 C8 15.99 8 16.98 8 18 C3.38 18 -1.24 18 -6 18 C-6 17.01 -6 16.02 -6 15 C-6.99 15 -7.98 15 -9 15 C-9 14.01 -9 13.02 -9 12 C-8.01 12 -7.02 12 -6 12 C-6 10.02 -6 8.04 -6 6 C-3.03 6 -0.06 6 3 6 C3 5.01 3 4.02 3 3 C2.01 3 1.02 3 0 3 C0 2.01 0 1.02 0 0 Z " fill="#FFDAB5" transform="translate(60,73)"/>
<path d="M0 0 C0.33 0 0.66 0 1 0 C1 2.31 1 4.62 1 7 C1.99 7 2.98 7 4 7 C4 8.98 4 10.96 4 13 C4.99 13 5.98 13 7 13 C7 13.99 7 14.98 7 16 C9.97 16 12.94 16 16 16 C16 15.01 16 14.02 16 13 C16.99 13 17.98 13 19 13 C19 13.99 19 14.98 19 16 C21.31 16 23.62 16 26 16 C25.505 17.485 25.505 17.485 25 19 C19.39 19 13.78 19 8 19 C8 18.34 8 17.68 8 17 C6.865625 16.855625 5.73125 16.71125 4.5625 16.5625 C1 16 1 16 0 15 C-0.04092937 12.66702567 -0.04241723 10.33294775 0 8 C-1.74023438 8.32484375 -1.74023438 8.32484375 -3.515625 8.65625 C-22.32926544 12.054726 -22.32926544 12.054726 -30 11 C-30.66 10.34 -31.32 9.68 -32 9 C-31.87109375 6.98828125 -31.87109375 6.98828125 -31 5 C-29.22265625 3.91796875 -29.22265625 3.91796875 -27.0625 3.1875 C-26.35222656 2.93355469 -25.64195313 2.67960937 -24.91015625 2.41796875 C-23 2 -23 2 -21 3 C-21 3.99 -21 4.98 -21 6 C-18.03 6 -15.06 6 -12 6 C-12 5.01 -12 4.02 -12 3 C-11.01 3 -10.02 3 -9 3 C-9 3.99 -9 4.98 -9 6 C-6.03 6 -3.06 6 0 6 C0 4.02 0 2.04 0 0 Z " fill="#900DAB" transform="translate(44,105)"/>
<path d="M0 0 C6.93 0 13.86 0 21 0 C21 3.96 21 7.92 21 12 C18.03 12 15.06 12 12 12 C12 11.01 12 10.02 12 9 C11.01 9 10.02 9 9 9 C9 9.99 9 10.98 9 12 C6.03 12 3.06 12 0 12 C0 11.01 0 10.02 0 9 C-0.66 9 -1.32 9 -2 9 C-2 7.02 -2 5.04 -2 3 C-1.34 3 -0.68 3 0 3 C0 2.01 0 1.02 0 0 Z " fill="#4A4A4A" transform="translate(23,99)"/>
<path d="M0 0 C9.875 3.875 9.875 3.875 11 5 C11.04080783 6.99958364 11.04254356 9.00045254 11 11 C12.65 11 14.3 11 16 11 C16 13.31 16 15.62 16 18 C16.99 18 17.98 18 19 18 C19 18.99 19 19.98 19 21 C17.68 21 16.36 21 15 21 C15 21.99 15 22.98 15 24 C14.01 24 13.02 24 12 24 C12 23.01 12 22.02 12 21 C11.01 21 10.02 21 9 21 C9 20.01 9 19.02 9 18 C6.03 18 3.06 18 0 18 C0 12.06 0 6.12 0 0 Z " fill="#52506A" transform="translate(23,33)"/>
<path d="M0 0 C0.66 0 1.32 0 2 0 C2 1.32 2 2.64 2 4 C2.99 4 3.98 4 5 4 C5 9.28 5 14.56 5 20 C5.99 20.33 6.98 20.66 8 21 C7.83628906 21.54140625 7.67257813 22.0828125 7.50390625 22.640625 C6.91409413 25.40222593 6.90390692 27.92818139 6.9375 30.75 C6.95103516 32.22726563 6.95103516 32.22726563 6.96484375 33.734375 C6.97644531 34.48203125 6.98804688 35.2296875 7 36 C6.34 36 5.68 36 5 36 C5 35.01 5 34.02 5 33 C2.69 33 0.38 33 -2 33 C-2 31.02 -2 29.04 -2 27 C-3.65 27 -5.3 27 -7 27 C-7 24.69 -7 22.38 -7 20 C-4.69 20 -2.38 20 0 20 C0 13.4 0 6.8 0 0 Z " fill="#B823EC" transform="translate(46,24)"/>
<path d="M0 0 C2.64 0 5.28 0 8 0 C8 1.98 8 3.96 8 6 C10.31 6 12.62 6 15 6 C15 5.01 15 4.02 15 3 C15.99 3 16.98 3 18 3 C18 3.99 18 4.98 18 6 C18.99 6 19.98 6 21 6 C21 6.66 21 7.32 21 8 C20.01 8 19.02 8 18 8 C18 9.98 18 11.96 18 14 C17.01 14 16.02 14 15 14 C15 14.99 15 15.98 15 17 C11.7 17 8.4 17 5 17 C5 15.35 5 13.7 5 12 C3.35 12 1.7 12 0 12 C0 10.68 0 9.36 0 8 C-1.32 8 -2.64 8 -4 8 C-4 7.34 -4 6.68 -4 6 C-2.68 6 -1.36 6 0 6 C0 4.02 0 2.04 0 0 Z " fill="#753D0F" transform="translate(85,64)"/>
<path d="M0 0 C2.31 0 4.62 0 7 0 C7 1.32 7 2.64 7 4 C8.65 4 10.3 4 12 4 C12 8.62 12 13.24 12 18 C11.01 18 10.02 18 9 18 C9 18.66 9 19.32 9 20 C7.02 20 5.04 20 3 20 C2.67 21.32 2.34 22.64 2 24 C2 23.34 2 22.68 2 22 C1.34 22 0.68 22 0 22 C0 14.74 0 7.48 0 0 Z " fill="#7C0070" transform="translate(78,72)"/>
<path d="M0 0 C0.99 0 1.98 0 3 0 C3 1.98 3 3.96 3 6 C4.98 6 6.96 6 9 6 C9 6.99 9 7.98 9 9 C9.66 9 10.32 9 11 9 C11 10.98 11 12.96 11 15 C10.34 15 9.68 15 9 15 C9 15.99 9 16.98 9 18 C9.66 18 10.32 18 11 18 C11 18.99 11 19.98 11 21 C9.35 21 7.7 21 6 21 C6 21.99 6 22.98 6 24 C4.02 24 2.04 24 0 24 C-0.97758625 18.54724114 -0.97344509 13.57483237 -0.5625 8.0625 C-0.51029297 7.28326172 -0.45808594 6.50402344 -0.40429688 5.70117188 C-0.27601936 3.80033228 -0.13892679 1.90009096 0 0 Z " fill="#240441" transform="translate(45,88)"/>
<path d="M0 0 C1.32 0 2.64 0 4 0 C4 2.31 4 4.62 4 7 C4.99 7 5.98 7 7 7 C7 7.99 7 8.98 7 10 C6.01 10 5.02 10 4 10 C4 10.99 4 11.98 4 13 C3.01 13 2.02 13 1 13 C1 16.96 1 20.92 1 25 C0.01 25 -0.98 25 -2 25 C-2.16834933 23.22932584 -2.33461909 21.45845388 -2.5 19.6875 C-2.5928125 18.70136719 -2.685625 17.71523437 -2.78125 16.69921875 C-3 14 -3 14 -3 11 C-3.66 11 -4.32 11 -5 11 C-5 11.99 -5 12.98 -5 14 C-7.31 14 -9.62 14 -12 14 C-12 13.01 -12 12.02 -12 11 C-13.65 11 -15.3 11 -17 11 C-17 10.01 -17 9.02 -17 8 C-11.39 8 -5.78 8 0 8 C0 5.36 0 2.72 0 0 Z " fill="#000000" transform="translate(47,60)"/>
<path d="M0 0 C1.98 0 3.96 0 6 0 C6 1.98 6 3.96 6 6 C6.99 6 7.98 6 9 6 C9 6.99 9 7.98 9 9 C9.99 9 10.98 9 12 9 C12 10.98 12 12.96 12 15 C11.01 15 10.02 15 9 15 C9 14.01 9 13.02 9 12 C6.03 12 3.06 12 0 12 C0 12.99 0 13.98 0 15 C-0.99 15 -1.98 15 -3 15 C-3 11.04 -3 7.08 -3 3 C-2.01 3 -1.02 3 0 3 C0 2.01 0 1.02 0 0 Z " fill="#480782" transform="translate(68,88)"/>
<path d="M0 0 C1.32 0 2.64 0 4 0 C4 2.97 4 5.94 4 9 C8.29 9 12.58 9 17 9 C17 6.03 17 3.06 17 0 C17.99 0 18.98 0 20 0 C20 0.99 20 1.98 20 3 C20.99 3 21.98 3 23 3 C23 3.99 23 4.98 23 6 C22.01 6 21.02 6 20 6 C19.67 8.97 19.34 11.94 19 15 C18.01 15 17.02 15 16 15 C16 14.01 16 13.02 16 12 C10.39 12 4.78 12 -1 12 C-0.67 8.04 -0.34 4.08 0 0 Z " fill="#000000" transform="translate(55,55)"/>
<path d="M0 0 C0.99 0 1.98 0 3 0 C3 1.98 3 3.96 3 6 C4.32 6 5.64 6 7 6 C7 6.99 7 7.98 7 9 C7.99 9 8.98 9 10 9 C10 10.98 10 12.96 10 15 C7.69 15 5.38 15 3 15 C2.67 15.99 2.34 16.98 2 18 C0.35 18 -1.3 18 -3 18 C-3 14.04 -3 10.08 -3 6 C-2.01 6 -1.02 6 0 6 C0 4.02 0 2.04 0 0 Z " fill="#F900E0" transform="translate(103,72)"/>
<path d="M0 0 C1.65 0 3.3 0 5 0 C5 0.99 5 1.98 5 3 C7.97 3 10.94 3 14 3 C14 6.96 14 10.92 14 15 C13.01 15 12.02 15 11 15 C11 16.65 11 18.3 11 20 C10.34 20 9.68 20 9 20 C9 19.34 9 18.68 9 18 C7.68 18 6.36 18 5 18 C5 17.01 5 16.02 5 15 C6.32 15 7.64 15 9 15 C9 13.02 9 11.04 9 9 C7.68 9 6.36 9 5 9 C5 8.01 5 7.02 5 6 C3.35 6 1.7 6 0 6 C0 4.02 0 2.04 0 0 Z " fill="#1CDAB1" transform="translate(21,79)"/>
<path d="M0 0 C0.66 0 1.32 0 2 0 C2 1.98 2 3.96 2 6 C4.31 6 6.62 6 9 6 C9 6.99 9 7.98 9 9 C7.68 9 6.36 9 5 9 C5 9.66 5 10.32 5 11 C-1.93 11 -8.86 11 -16 11 C-16 10.34 -16 9.68 -16 9 C-14.02 9 -12.04 9 -10 9 C-10 8.01 -10 7.02 -10 6 C-8.02 6 -6.04 6 -4 6 C-4 5.01 -4 4.02 -4 3 C-2.68 3 -1.36 3 0 3 C0 2.01 0 1.02 0 0 Z " fill="#F3F706" transform="translate(42,51)"/>
<path d="M0 0 C3.3 0 6.6 0 10 0 C10 2.97 10 5.94 10 9 C10.99 9 11.98 9 13 9 C13 9.66 13 10.32 13 11 C7.72 11 2.44 11 -3 11 C-3 10.34 -3 9.68 -3 9 C-2.01 9 -1.02 9 0 9 C0 6.03 0 3.06 0 0 Z " fill="#511E3C" transform="translate(90,81)"/>
<path d="M0 0 C4.29 0 8.58 0 13 0 C13 2.97 13 5.94 13 9 C8.71 9 4.42 9 0 9 C0 6.03 0 3.06 0 0 Z " fill="#302158" transform="translate(59,55)"/>
<path d="M0 0 C0.99 0 1.98 0 3 0 C3 1.98 3 3.96 3 6 C3.99 6 4.98 6 6 6 C6 6.99 6 7.98 6 9 C5.01 9 4.02 9 3 9 C3.01160156 9.62648438 3.02320313 10.25296875 3.03515625 10.8984375 C3.04417969 11.71570313 3.05320312 12.53296875 3.0625 13.375 C3.07410156 14.18710938 3.08570313 14.99921875 3.09765625 15.8359375 C3 18 3 18 2 20 C1.34 20 0.68 20 0 20 C0 18.35 0 16.7 0 15 C-1.32 15 -2.64 15 -4 15 C-4 11.04 -4 7.08 -4 3 C-2.68 3 -1.36 3 0 3 C0 2.01 0 1.02 0 0 Z " fill="#1CD9B0" transform="translate(42,79)"/>
<path d="M0 0 C0.66 0 1.32 0 2 0 C2 0.99 2 1.98 2 3 C2.99 3 3.98 3 5 3 C5 3.99 5 4.98 5 6 C4.01 6 3.02 6 2 6 C2 6.99 2 7.98 2 9 C0.02 9 -1.96 9 -4 9 C-4 10.65 -4 12.3 -4 14 C-4.99 14 -5.98 14 -7 14 C-7 17.96 -7 21.92 -7 26 C-7.66 26 -8.32 26 -9 26 C-9 19.4 -9 12.8 -9 6 C-8.34 6 -7.68 6 -7 6 C-7 5.01 -7 4.02 -7 3 C-6.01 3 -5.02 3 -4 3 C-4 3.99 -4 4.98 -4 6 C-2.68 6 -1.36 6 0 6 C0 4.02 0 2.04 0 0 Z " fill="#D8D331" transform="translate(30,51)"/>
<path d="M0 0 C1.65 0 3.3 0 5 0 C5 0.99 5 1.98 5 3 C6.32 3 7.64 3 9 3 C9 4.98 9 6.96 9 9 C7.68 9 6.36 9 5 9 C5 9.99 5 10.98 5 12 C6.32 12 7.64 12 9 12 C9 12.66 9 13.32 9 14 C6.69 14 4.38 14 2 14 C2 14.99 2 15.98 2 17 C1.34 17 0.68 17 0 17 C0 11.39 0 5.78 0 0 Z " fill="#0C6451" transform="translate(21,85)"/>
<path d="M0 0 C4.62 0 9.24 0 14 0 C14 2.97 14 5.94 14 9 C10.37 9 6.74 9 3 9 C3 7.02 3 5.04 3 3 C2.01 3 1.02 3 0 3 C0 2.01 0 1.02 0 0 Z " fill="#C420C7" transform="translate(60,73)"/>
<path d="M0 0 C4.29 0 8.58 0 13 0 C13 2.97 13 5.94 13 9 C12.01 9 11.02 9 10 9 C10 8.01 10 7.02 10 6 C9.01 6 8.02 6 7 6 C7 6.99 7 7.98 7 9 C4.69 9 2.38 9 0 9 C0 6.03 0 3.06 0 0 Z " fill="#FA09E2" transform="translate(93,61)"/>
<path d="M0 0 C0.99 0 1.98 0 3 0 C3 0.66 3 1.32 3 2 C6.3 2 9.6 2 13 2 C9.50297181 4.33135213 7.12971762 4.44003829 3 5 C1.576875 5.495 1.576875 5.495 0.125 6 C-3.24077231 7.07704714 -6.34568982 7.45252421 -9.8515625 7.75390625 C-11.97254887 7.9968556 -13.94315972 8.43692834 -16 9 C-16 7.35 -16 5.7 -16 4 C-14.02 4 -12.04 4 -10 4 C-9.67 3.01 -9.34 2.02 -9 1 C-6.03 1.33 -3.06 1.66 0 2 C0 1.34 0 0.68 0 0 Z " fill="#3177A2" transform="translate(90,102)"/>
<path d="M0 0 C2.31 0 4.62 0 7 0 C7 1.32 7 2.64 7 4 C8.65 4 10.3 4 12 4 C12 8.62 12 13.24 12 18 C10.35 18 8.7 18 7 18 C7 17.01 7 16.02 7 15 C7.66 15 8.32 15 9 15 C9 13.02 9 11.04 9 9 C8.34 9 7.68 9 7 9 C7 8.01 7 7.02 7 6 C4.69 6 2.38 6 0 6 C0 4.02 0 2.04 0 0 Z " fill="#FF00E6" transform="translate(78,72)"/>
<path d="M0 0 C2.97 0 5.94 0 9 0 C9 0.99 9 1.98 9 3 C9.99 3 10.98 3 12 3 C12 3.99 12 4.98 12 6 C10.02 6 8.04 6 6 6 C6 8.97 6 11.94 6 15 C5.01 15 4.02 15 3 15 C3 13.02 3 11.04 3 9 C2.01 9 1.02 9 0 9 C0 6.03 0 3.06 0 0 Z " fill="#3B066A" transform="translate(68,100)"/>
<path d="M0 0 C5.61 0 11.22 0 17 0 C17 1.32 17 2.64 17 4 C15.02 4 13.04 4 11 4 C11.02320312 4.98742187 11.04640625 5.97484375 11.0703125 6.9921875 C11.09738281 8.91417969 11.09738281 8.91417969 11.125 10.875 C11.14820312 12.15117187 11.17140625 13.42734375 11.1953125 14.7421875 C11 18 11 18 9 20 C9 14.72 9 9.44 9 4 C6.03 4 3.06 4 0 4 C0 2.68 0 1.36 0 0 Z " fill="#8D61F5" transform="translate(54,4)"/>
<path d="M0 0 C0.99 0 1.98 0 3 0 C3 0.99 3 1.98 3 3 C3.66 3 4.32 3 5 3 C5 7.95 5 12.9 5 18 C4.34 18 3.68 18 3 18 C3 14.04 3 10.08 3 6 C-2.28 6 -7.56 6 -13 6 C-13 5.01 -13 4.02 -13 3 C-8.71 3 -4.42 3 0 3 C0 2.01 0 1.02 0 0 Z " fill="#0D0426" transform="translate(103,52)"/>
<path d="M0 0 C0.99 0 1.98 0 3 0 C3 3.96 3 7.92 3 12 C4.32 12 5.64 12 7 12 C7 13.65 7 15.3 7 17 C3.7 17 0.4 17 -3 17 C-3 15.35 -3 13.7 -3 12 C-2.01 12 -1.02 12 0 12 C0 8.04 0 4.08 0 0 Z " fill="#E9ED00" transform="translate(35,82)"/>
<path d="M0 0 C0.66 0 1.32 0 2 0 C2 0.66 2 1.32 2 2 C2.99 2 3.98 2 5 2 C5 4.97 5 7.94 5 11 C2.36 11 -0.28 11 -3 11 C-3.33 13.31 -3.66 15.62 -4 18 C1.94 18 7.88 18 14 18 C14 18.33 14 18.66 14 19 C3.605 19.495 3.605 19.495 -7 20 C-7 12 -7 12 -5.9375 10 C-2.97912322 8.47309585 -0.26283401 8.81531128 3 9 C3 7.02 3 5.04 3 3 C2.01 3 1.02 3 0 3 C0 2.01 0 1.02 0 0 Z " fill="#000000" transform="translate(110,78)"/>
<path d="M0 0 C0.99 0 1.98 0 3 0 C3 7.92 3 15.84 3 24 C2.01 24 1.02 24 0 24 C-0.97758625 18.54724114 -0.97344509 13.57483237 -0.5625 8.0625 C-0.51029297 7.28326172 -0.45808594 6.50402344 -0.40429688 5.70117188 C-0.27601936 3.80033228 -0.13892679 1.90009096 0 0 Z " fill="#000000" transform="translate(45,88)"/>
<path d="M0 0 C5.61 0 11.22 0 17 0 C17 1.65 17 3.3 17 5 C16.01 5.33 15.02 5.66 14 6 C14 5.01 14 4.02 14 3 C13.34 3 12.68 3 12 3 C12 3.99 12 4.98 12 6 C9.69 6 7.38 6 5 6 C5 5.01 5 4.02 5 3 C3.35 3 1.7 3 0 3 C0 2.01 0 1.02 0 0 Z " fill="#1F7160" transform="translate(30,68)"/>
<path d="M0 0 C8.25 0 16.5 0 25 0 C25 0.99 25 1.98 25 3 C16.75 3 8.5 3 0 3 C0 2.01 0 1.02 0 0 Z " fill="#530E84" transform="translate(78,52)"/>
<path d="M0 0 C8.25 0 16.5 0 25 0 C25 0.99 25 1.98 25 3 C16.75 3 8.5 3 0 3 C0 2.01 0 1.02 0 0 Z " fill="#000000" transform="translate(78,49)"/>
<path d="M0 0 C2.31 0 4.62 0 7 0 C7 3.3 7 6.6 7 10 C4.69 10 2.38 10 0 10 C0 6.7 0 3.4 0 0 Z " fill="#000000" transform="translate(74,13)"/>
<path d="M0 0 C0.33 3.3 0.66 6.6 1 10 C-0.98 10 -2.96 10 -5 10 C-5.33 10.66 -5.66 11.32 -6 12 C-6 8.7 -6 5.4 -6 2 C-8.31 2 -10.62 2 -13 2 C-13 1.67 -13 1.34 -13 1 C-8.54459632 0.39587747 -4.52021205 0 0 0 Z " fill="#CF00E5" transform="translate(87,11)"/>
<path d="M0 0 C4.29 0 8.58 0 13 0 C13 1.65 13 3.3 13 5 C8.71 5 4.42 5 0 5 C0 3.35 0 1.7 0 0 Z " fill="#32084F" transform="translate(65,47)"/>
<path d="M0 0 C0.66 0 1.32 0 2 0 C2 7.59 2 15.18 2 23 C1.34 23 0.68 23 0 23 C0 21.35 0 19.7 0 18 C-4.95 18 -9.9 18 -15 18 C-15 17.67 -15 17.34 -15 17 C-10.05 17 -5.1 17 0 17 C0 11.39 0 5.78 0 0 Z " fill="#000000" transform="translate(19,79)"/>
<path d="M0 0 C0.99 0 1.98 0 3 0 C3 1.98 3 3.96 3 6 C2.01 6 1.02 6 0 6 C0 6.99 0 7.98 0 9 C-2.97 9 -5.94 9 -9 9 C-9 8.01 -9 7.02 -9 6 C-7.35 6 -5.7 6 -4 6 C-4 5.01 -4 4.02 -4 3 C-2.68 3 -1.36 3 0 3 C0 2.01 0 1.02 0 0 Z " fill="#000000" transform="translate(60,112)"/>
<path d="M0 0 C0.99 0 1.98 0 3 0 C3 2.97 3 5.94 3 9 C3.99 9 4.98 9 6 9 C6 9.99 6 10.98 6 12 C5.01 12 4.02 12 3 12 C3 12.99 3 13.98 3 15 C2.01 15 1.02 15 0 15 C0 10.05 0 5.1 0 0 Z " fill="#442507" transform="translate(48,73)"/>
<path d="M0 0 C3.96 0 7.92 0 12 0 C11.01 0.66 10.02 1.32 9 2 C4.9060423 4.86577039 2.98170114 7.41079736 1 12 C0.67 12 0.34 12 0 12 C0 8.04 0 4.08 0 0 Z " fill="#060609" transform="translate(0,0)"/>
<path d="M0 0 C0.99 0 1.98 0 3 0 C3 1.98 3 3.96 3 6 C3.66 6 4.32 6 5 6 C5 6.99 5 7.98 5 9 C2.36 9 -0.28 9 -3 9 C-3 7.02 -3 5.04 -3 3 C-2.01 3 -1.02 3 0 3 C0 2.01 0 1.02 0 0 Z " fill="#2F2F2F" transform="translate(51,109)"/>
<path d="M0 0 C1.98 0 3.96 0 6 0 C6 0.99 6 1.98 6 3 C6.66 3 7.32 3 8 3 C8 3.99 8 4.98 8 6 C6.35 6 4.7 6 3 6 C3 6.99 3 7.98 3 9 C2.01 9 1.02 9 0 9 C0 6.03 0 3.06 0 0 Z " fill="#34065D" transform="translate(48,103)"/>
<path d="M0 0 C0.99 0 1.98 0 3 0 C3 1.98 3 3.96 3 6 C2.01 6 1.02 6 0 6 C0 6.99 0 7.98 0 9 C-2.97 9 -5.94 9 -9 9 C-9 8.01 -9 7.02 -9 6 C-6.69 6 -4.38 6 -2 6 C-2 5.01 -2 4.02 -2 3 C-1.34 3 -0.68 3 0 3 C0 2.01 0 1.02 0 0 Z " fill="#000000" transform="translate(32,102)"/>
<path d="M0 0 C0.99 0 1.98 0 3 0 C3 1.98 3 3.96 3 6 C4.32 6 5.64 6 7 6 C7 6.99 7 7.98 7 9 C4.03 9 1.06 9 -2 9 C-2 7.02 -2 5.04 -2 3 C-1.34 3 -0.68 3 0 3 C0 2.01 0 1.02 0 0 Z " fill="#242424" transform="translate(23,99)"/>
<path d="M0 0 C3.63 0 7.26 0 11 0 C11 3.3 11 6.6 11 10 C10.29875 9.2575 9.5975 8.515 8.875 7.75 C6.77717418 5.743384 5.06971505 4.28910331 2.6875 2.75 C1.800625 2.1725 0.91375 1.595 0 1 C0 0.67 0 0.34 0 0 Z " fill="#030305" transform="translate(117,0)"/>
<path d="M0 0 C0.66 0 1.32 0 2 0 C2 3.96 2 7.92 2 12 C2.99 12 3.98 12 5 12 C5 12.99 5 13.98 5 15 C2.36 15 -0.28 15 -3 15 C-3 14.01 -3 13.02 -3 12 C-2.01 12 -1.02 12 0 12 C0 8.04 0 4.08 0 0 Z " fill="#AD35D0" transform="translate(63,91)"/>
<path d="M0 0 C3.3 0 6.6 0 10 0 C10 1.98 10 3.96 10 6 C9.01 6 8.02 6 7 6 C7 5.01 7 4.02 7 3 C5.68 3 4.36 3 3 3 C3 3.99 3 4.98 3 6 C2.01 6 1.02 6 0 6 C0 4.02 0 2.04 0 0 Z " fill="#520E82" transform="translate(90,81)"/>
<path d="M0 0 C5.28 0 10.56 0 16 0 C16 0.99 16 1.98 16 3 C10.72 3 5.44 3 0 3 C0 2.01 0 1.02 0 0 Z " fill="#7D4110" transform="translate(90,58)"/>
<path d="M0 0 C2.31 0 4.62 0 7 0 C7 0.99 7 1.98 7 3 C7.66 3 8.32 3 9 3 C9 3.66 9 4.32 9 5 C7.02 5 5.04 5 3 5 C2.67 6.32 2.34 7.64 2 9 C2 8.34 2 7.68 2 7 C1.34 7 0.68 7 0 7 C0 4.69 0 2.38 0 0 Z " fill="#AD009C" transform="translate(78,87)"/>
<path d="M0 0 C4.62 0 9.24 0 14 0 C14 0.99 14 1.98 14 3 C9.38 3 4.76 3 0 3 C0 2.01 0 1.02 0 0 Z " fill="#FFDAB5" transform="translate(60,73)"/>
<path d="M0 0 C1.98 0 3.96 0 6 0 C6 0.99 6 1.98 6 3 C5.34 3 4.68 3 4 3 C4 4.98 4 6.96 4 9 C2.68 9 1.36 9 0 9 C0 6.03 0 3.06 0 0 Z " fill="#110630" transform="translate(81,61)"/>
<path d="M0 0 C0.33 0 0.66 0 1 0 C1 3.3 1 6.6 1 10 C-2.3 10 -5.6 10 -9 10 C-8.236875 9.401875 -7.47375 8.80375 -6.6875 8.1875 C-2.36789787 4.78488452 -2.36789787 4.78488452 0 0 Z " fill="#000000" transform="translate(127,118)"/>
<path d="M0 0 C1.65 0 3.3 0 5 0 C5 0.99 5 1.98 5 3 C6.32 3 7.64 3 9 3 C9 3.66 9 4.32 9 5 C6.69 5 4.38 5 2 5 C2 5.99 2 6.98 2 8 C1.34 8 0.68 8 0 8 C0 5.36 0 2.72 0 0 Z " fill="#149C7F" transform="translate(21,94)"/>
<path d="M0 0 C4.29 0 8.58 0 13 0 C13 0.99 13 1.98 13 3 C8.71 3 4.42 3 0 3 C0 2.01 0 1.02 0 0 Z " fill="#B200A1" transform="translate(93,61)"/>
<path d="M0 0 C-0.33 0.66 -0.66 1.32 -1 2 C-6.61 2 -12.22 2 -18 2 C-17.67 1.34 -17.34 0.68 -17 0 C-13.9453125 -0.44921875 -13.9453125 -0.44921875 -10.125 -0.6875 C-8.86945312 -0.77386719 -7.61390625 -0.86023438 -6.3203125 -0.94921875 C-3 -1 -3 -1 0 0 Z " fill="#935BF5" transform="translate(70,122)"/>
<path d="M0 0 C0.99 0 1.98 0 3 0 C3 1.98 3 3.96 3 6 C0.36 6 -2.28 6 -5 6 C-5 5.01 -5 4.02 -5 3 C-3.35 3 -1.7 3 0 3 C0 2.01 0 1.02 0 0 Z " fill="#000000" transform="translate(68,115)"/>
<path d="M0 0 C0.66 0 1.32 0 2 0 C2 1.98 2 3.96 2 6 C-0.97 6 -3.94 6 -7 6 C-7 5.01 -7 4.02 -7 3 C-4.69 3 -2.38 3 0 3 C0 2.01 0 1.02 0 0 Z " fill="#000000" transform="translate(42,105)"/>
<path d="M0 0 C1.65 0 3.3 0 5 0 C5 0.99 5 1.98 5 3 C6.32 3 7.64 3 9 3 C9 3.99 9 4.98 9 6 C7.02 6 5.04 6 3 6 C3 5.01 3 4.02 3 3 C2.01 3 1.02 3 0 3 C0 2.01 0 1.02 0 0 Z " fill="#B2987E" transform="translate(51,85)"/>
<path d="M0 0 C3.63 0 7.26 0 11 0 C11 0.99 11 1.98 11 3 C7.37 3 3.74 3 0 3 C0 2.01 0 1.02 0 0 Z " fill="#89168B" transform="translate(63,76)"/>
<path d="M0 0 C2.31 0 4.62 0 7 0 C7 1.98 7 3.96 7 6 C5.68 6 4.36 6 3 6 C3 5.01 3 4.02 3 3 C2.01 3 1.02 3 0 3 C0 2.01 0 1.02 0 0 Z " fill="#000000" transform="translate(23,51)"/>
<path d="M0 0 C0.99 0 1.98 0 3 0 C3 1.98 3 3.96 3 6 C-0.3 6 -3.6 6 -7 6 C-7 5.34 -7 4.68 -7 4 C-4.69 4 -2.38 4 0 4 C0 2.68 0 1.36 0 0 Z " fill="#000000" transform="translate(100,98)"/>
<path d="M0 0 C2.31 0 4.62 0 7 0 C7 0.66 7 1.32 7 2 C7.66 2 8.32 2 9 2 C9 2.99 9 3.98 9 5 C7.02 5 5.04 5 3 5 C3 4.01 3 3.02 3 2 C2.01 2 1.02 2 0 2 C0 1.34 0 0.68 0 0 Z " fill="#B2987E" transform="translate(23,77)"/>
<path d="M0 0 C1.98 0 3.96 0 6 0 C6 0.66 6 1.32 6 2 C6.99 2 7.98 2 9 2 C9 3.32 9 4.64 9 6 C7.35 6 5.7 6 4 6 C4 4.68 4 3.36 4 2 C2.68 2 1.36 2 0 2 C0 1.34 0 0.68 0 0 Z " fill="#592E0A" transform="translate(81,70)"/>
<path d="M0 0 C2.19726562 1.85546875 2.19726562 1.85546875 4.39453125 3.7109375 C5.8655046 4.89201099 7.43037794 5.95358529 9 7 C6.03 7 3.06 7 0 7 C0 4.69 0 2.38 0 0 Z " fill="#000000" transform="translate(0,121)"/>
<path d="M0 0 C0.99 0 1.98 0 3 0 C3 0.99 3 1.98 3 3 C4.32 3 5.64 3 7 3 C7 3.99 7 4.98 7 6 C4.69 6 2.38 6 0 6 C0 4.02 0 2.04 0 0 Z " fill="#343434" transform="translate(35,102)"/>
<path d="M0 0 C3.3 0 6.6 0 10 0 C10 0.99 10 1.98 10 3 C6.7 3 3.4 3 0 3 C0 2.01 0 1.02 0 0 Z " fill="#7D4110" transform="translate(90,78)"/>
<path d="M0 0 C0.99 0 1.98 0 3 0 C3 2.97 3 5.94 3 9 C1.68 9 0.36 9 -1 9 C-0.67 6.03 -0.34 3.06 0 0 Z " fill="#6192F0" transform="translate(75,61)"/>
<path d="M0 0 C0.33 0 0.66 0 1 0 C1.125 6.625 1.125 6.625 0 10 C-0.99 10 -1.98 10 -3 10 C-3 7.69 -3 5.38 -3 3 C-2.34 3 -1.68 3 -1 3 C-0.67 2.01 -0.34 1.02 0 0 Z " fill="#B239F8" transform="translate(54,57)"/>
<path d="M0 0 C0.99 0 1.98 0 3 0 C3 0.99 3 1.98 3 3 C4.32 3 5.64 3 7 3 C7 3.99 7 4.98 7 6 C4.69 6 2.38 6 0 6 C0 4.02 0 2.04 0 0 Z " fill="#000000" transform="translate(44,51)"/>
<path d="M0 0 C2.31 0 4.62 0 7 0 C7 1.32 7 2.64 7 4 C4.69 4 2.38 4 0 4 C0 2.68 0 1.36 0 0 Z " fill="#39095A" transform="translate(93,98)"/>
<path d="M0 0 C0.99 0 1.98 0 3 0 C3 2.97 3 5.94 3 9 C2.01 9 1.02 9 0 9 C0 6.03 0 3.06 0 0 Z " fill="#000000" transform="translate(71,106)"/>
<path d="M0 0 C0.99 0 1.98 0 3 0 C3 2.97 3 5.94 3 9 C2.01 9 1.02 9 0 9 C0 6.03 0 3.06 0 0 Z " fill="#19032D" transform="translate(48,94)"/>
<path d="M0 0 C0.99 0 1.98 0 3 0 C3 2.97 3 5.94 3 9 C2.01 9 1.02 9 0 9 C0 6.03 0 3.06 0 0 Z " fill="#57004E" transform="translate(78,78)"/>
<path d="M0 0 C0.99 0 1.98 0 3 0 C3 2.97 3 5.94 3 9 C2.01 9 1.02 9 0 9 C0 6.03 0 3.06 0 0 Z " fill="#520E82" transform="translate(59,55)"/>
<path d="M0 0 C0.99 0 1.98 0 3 0 C3 1.98 3 3.96 3 6 C1.02 6 -0.96 6 -3 6 C-3 5.01 -3 4.02 -3 3 C-2.01 3 -1.02 3 0 3 C0 2.01 0 1.02 0 0 Z " fill="#1B042B" transform="translate(62,49)"/>
<path d="M0 0 C0.99 0 1.98 0 3 0 C3 2.31 3 4.62 3 7 C1.68 7 0.36 7 -1 7 C-0.67 4.69 -0.34 2.38 0 0 Z " fill="#40344D" transform="translate(107,89)"/>
<path d="M0 0 C0.99 0 1.98 0 3 0 C3.042721 1.66611905 3.04063832 3.33382885 3 5 C2 6 2 6 -0.5625 6.0625 C-1.7690625 6.0315625 -1.7690625 6.0315625 -3 6 C-3 5.01 -3 4.02 -3 3 C-2.01 3 -1.02 3 0 3 C0 2.01 0 1.02 0 0 Z " fill="#B200A1" transform="translate(103,84)"/>
<path d="M0 0 C0.99 0 1.98 0 3 0 C3 0.99 3 1.98 3 3 C4.32 3.33 5.64 3.66 7 4 C2.38 4.33 -2.24 4.66 -7 5 C-7.33 4.34 -7.66 3.68 -8 3 C-5.36 3 -2.72 3 0 3 C0 2.01 0 1.02 0 0 Z " fill="#663AA6" transform="translate(60,118)"/>
<path d="M0 0 C2.64 0 5.28 0 8 0 C8 0.99 8 1.98 8 3 C5.36 3 2.72 3 0 3 C0 2.01 0 1.02 0 0 Z " fill="#792591" transform="translate(60,106)"/>
<path d="M0 0 C1.32 0 2.64 0 4 0 C4 1.98 4 3.96 4 6 C2.68 6 1.36 6 0 6 C0 4.02 0 2.04 0 0 Z " fill="#1D123A" transform="translate(68,58)"/>
<path d="M0 0 C0.99 0 1.98 0 3 0 C3.125 5.75 3.125 5.75 2 8 C1.34 8 0.68 8 0 8 C0 5.36 0 2.72 0 0 Z " fill="#16B190" transform="translate(42,91)"/>
<path d="M0 0 C1.32 0 2.64 0 4 0 C4 1.32 4 2.64 4 4 C3.01 4 2.02 4 1 4 C1 5.32 1 6.64 1 8 C0.34 8 -0.32 8 -1 8 C-0.67 5.36 -0.34 2.72 0 0 Z " fill="#B733FA" transform="translate(50,4)"/>
<path d="M0 0 C0.66 0 1.32 0 2 0 C2 0.99 2 1.98 2 3 C2.99 3 3.98 3 5 3 C5 3.99 5 4.98 5 6 C3.35 6 1.7 6 0 6 C0 4.02 0 2.04 0 0 Z " fill="#343434" transform="translate(63,112)"/>
<path d="M0 0 C2.31 0 4.62 0 7 0 C7 0.99 7 1.98 7 3 C4.69 3 2.38 3 0 3 C0 2.01 0 1.02 0 0 Z " fill="#4A4A4A" transform="translate(56,76)"/>
<path d="M0 0 C2.31 0 4.62 0 7 0 C7 0.99 7 1.98 7 3 C4.69 3 2.38 3 0 3 C0 2.01 0 1.02 0 0 Z " fill="#1DE0B6" transform="translate(35,71)"/>
<path d="M0 0 C2.31 0 4.62 0 7 0 C7 0.99 7 1.98 7 3 C4.69 3 2.38 3 0 3 C0 2.01 0 1.02 0 0 Z " fill="#302158" transform="translate(78,55)"/>
<path d="M0 0 C0.66 0 1.32 0 2 0 C2 0.99 2 1.98 2 3 C2.99 3 3.98 3 5 3 C5 3.99 5 4.98 5 6 C3.35 6 1.7 6 0 6 C0 4.02 0 2.04 0 0 Z " fill="#FCFF73" transform="translate(30,51)"/>
<path d="M0 0 C2.31 0 4.62 0 7 0 C7 0.99 7 1.98 7 3 C4.69 3 2.38 3 0 3 C0 2.01 0 1.02 0 0 Z " fill="#4C0D7A" transform="translate(78,52)"/>
<path d="M0 0 C0.99 0 1.98 0 3 0 C3 1.98 3 3.96 3 6 C2.01 6 1.02 6 0 6 C0 4.02 0 2.04 0 0 Z " fill="#000000" transform="translate(48,112)"/>
<path d="M0 0 C1.98 0 3.96 0 6 0 C6 0.99 6 1.98 6 3 C4.02 3 2.04 3 0 3 C0 2.01 0 1.02 0 0 Z " fill="#000000" transform="translate(74,103)"/>
<path d="M0 0 C0.99 0 1.98 0 3 0 C3 1.98 3 3.96 3 6 C2.01 6 1.02 6 0 6 C0 4.02 0 2.04 0 0 Z " fill="#34065D" transform="translate(48,88)"/>
<path d="M0 0 C0.99 0 1.98 0 3 0 C3 1.98 3 3.96 3 6 C2.01 6 1.02 6 0 6 C0 4.02 0 2.04 0 0 Z " fill="#B200A1" transform="translate(78,72)"/>
<path d="M0 0 C1.98 0 3.96 0 6 0 C6 0.99 6 1.98 6 3 C4.02 3 2.04 3 0 3 C0 2.01 0 1.02 0 0 Z " fill="#4A4A4A" transform="translate(87,61)"/>
<path d="M0 0 C0.99 0 1.98 0 3 0 C3 1.98 3 3.96 3 6 C2.01 6 1.02 6 0 6 C0 4.02 0 2.04 0 0 Z " fill="#180845" transform="translate(75,52)"/>
<path d="M0 0 C0.99 0 1.98 0 3 0 C3 1.98 3 3.96 3 6 C2.01 6 1.02 6 0 6 C0 4.02 0 2.04 0 0 Z " fill="#5D96EF" transform="translate(76,15)"/>
<path d="M0 0 C0.66 0 1.32 0 2 0 C2.66 1.98 3.32 3.96 4 6 C2.68 6 1.36 6 0 6 C0 4.02 0 2.04 0 0 Z " fill="#000000" transform="translate(106,72)"/>
</svg>
